HIERARCHY
ROOT Hips
{
	OFFSET 0.000000 100.481300 0.000000
	CHANNELS 6 Xposition Yposition Zposition Xrotation Yrotation Zrotation 
	JOINT Spine
	{
		OFFSET -0.279200 12.230698 -2.892100
		CHANNELS 3 Xrotation Yrotation Zrotation
		JOINT Spine1
		{
			OFFSET -0.232667 10.192268 -1.242267
			CHANNELS 3 Xrotation Yrotation Zrotation
			JOINT Spine1_split
			{
				OFFSET -0.232667 10.192268 -1.242267
				CHANNELS 3 Xrotation Yrotation Zrotation
				JOINT Spine2
				{
					OFFSET -0.232667 10.192268 -1.242267
					CHANNELS 3 Xrotation Yrotation Zrotation
					JOINT Neck
					{
						OFFSET -0.418800 17.814194 8.416900
						CHANNELS 3 Xrotation Yrotation Zrotation
						JOINT Head
						{
							OFFSET 0.000000 7.031097 3.806800
							CHANNELS 3 Xrotation Yrotation Zrotation
							JOINT HeadTop_End
							{
								OFFSET 0.000000 24.646606 12.978600
								CHANNELS 3 Xrotation Yrotation Zrotation
								End Site
								{
									OFFSET 0.000000 0.000000 0.000000
								}
							}
						}
					}
					JOINT LeftShoulder
					{
						OFFSET 8.476499 7.247704 -3.868750
						CHANNELS 3 Xrotation Yrotation Zrotation
						JOINT LeftShoulder_split
						{
							OFFSET 8.476499 7.247704 -3.868750
							CHANNELS 3 Xrotation Yrotation Zrotation
							JOINT LeftArm
							{
								OFFSET 9.308998 -2.777710 0.208600
								CHANNELS 3 Xrotation Yrotation Zrotation
								JOINT LeftForeArm
								{
									OFFSET 29.972298 0.000000 0.000000
									CHANNELS 3 Xrotation Yrotation Zrotation
									JOINT LeftHand
									{
										OFFSET 26.026505 0.000000 0.000000
										CHANNELS 3 Xrotation Yrotation Zrotation
										JOINT LeftHandThumb1
										{
											OFFSET 12.240501 -7.147949 9.207150
											CHANNELS 3 Xrotation Yrotation Zrotation
											JOINT LeftHandThumb2
											{
												OFFSET 4.138618 -2.389435 2.389433
												CHANNELS 3 Xrotation Yrotation Zrotation
												JOINT LeftHandThumb3
												{
													OFFSET 2.726913 -1.574387 1.574386
													CHANNELS 3 Xrotation Yrotation Zrotation
													JOINT LeftHandThumb4
													{
														OFFSET 3.941010 -2.275345 2.275342
														CHANNELS 3 Xrotation Yrotation Zrotation
														End Site
														{
															OFFSET 0.000000 0.000000 0.000000
														}
													}
												}
											}
										}
										JOINT LeftHandIndex1
										{
											OFFSET 24.424698 -1.985611 5.953459
											CHANNELS 3 Xrotation Yrotation Zrotation
											JOINT LeftHandIndex2
											{
												OFFSET 6.426697 0.000000 0.000000
												CHANNELS 3 Xrotation Yrotation Zrotation
												JOINT LeftHandIndex3
												{
													OFFSET 5.337898 0.000000 0.000000
													CHANNELS 3 Xrotation Yrotation Zrotation
													JOINT LeftHandIndex4
													{
														OFFSET 4.409401 0.000000 0.000000
														CHANNELS 3 Xrotation Yrotation Zrotation
														End Site
														{
															OFFSET 0.000000 0.000000 0.000000
														}
													}
												}
											}
										}
										JOINT LeftHandMiddle1
										{
											OFFSET 23.810104 0.000000 0.000000
											CHANNELS 3 Xrotation Yrotation Zrotation
											JOINT LeftHandMiddle2
											{
												OFFSET 7.176498 0.000000 0.000000
												CHANNELS 3 Xrotation Yrotation Zrotation
												JOINT LeftHandMiddle3
												{
													OFFSET 6.774902 0.000000 0.000000
													CHANNELS 3 Xrotation Yrotation Zrotation
													JOINT LeftHandMiddle4
													{
														OFFSET 5.403328 0.000000 0.000000
														CHANNELS 3 Xrotation Yrotation Zrotation
														End Site
														{
															OFFSET 0.000000 0.000000 0.000000
														}
													}
												}
											}
										}
										JOINT LeftHandRing1
										{
											OFFSET 22.908401 -0.839279 -6.020567
											CHANNELS 3 Xrotation Yrotation Zrotation
											JOINT LeftHandRing2
											{
												OFFSET 6.337502 0.000000 0.000000
												CHANNELS 3 Xrotation Yrotation Zrotation
												JOINT LeftHandRing3
												{
													OFFSET 5.779297 0.000000 0.000000
													CHANNELS 3 Xrotation Yrotation Zrotation
													JOINT LeftHandRing4
													{
														OFFSET 4.965698 0.000000 0.000000
														CHANNELS 3 Xrotation Yrotation Zrotation
														End Site
														{
															OFFSET 0.000000 0.000000 0.000000
														}
													}
												}
											}
										}
										JOINT LeftHandPinky1
										{
											OFFSET 20.037003 -1.530319 -10.950146
											CHANNELS 3 Xrotation Yrotation Zrotation
											JOINT LeftHandPinky2
											{
												OFFSET 5.254700 0.000000 0.000000
												CHANNELS 3 Xrotation Yrotation Zrotation
												JOINT LeftHandPinky3
												{
													OFFSET 4.810204 0.000000 0.000000
													CHANNELS 3 Xrotation Yrotation Zrotation
													JOINT LeftHandPinky4
													{
														OFFSET 3.647202 0.000000 0.000000
														CHANNELS 3 Xrotation Yrotation Zrotation
														End Site
														{
															OFFSET 0.000000 0.000000 0.000000
														}
													}
												}
											}
										}
									}
								}
							}
						}
					}
					JOINT RightShoulder
					{
						OFFSET -7.570500 7.247704 -3.868750
						CHANNELS 3 Xrotation Yrotation Zrotation
						JOINT RightShoulder_split
						{
							OFFSET -7.570500 7.247704 -3.868750
							CHANNELS 3 Xrotation Yrotation Zrotation
							JOINT RightArm
							{
								OFFSET -9.308998 -2.777710 0.208500
								CHANNELS 3 Xrotation Yrotation Zrotation
								JOINT RightForeArm
								{
									OFFSET -29.972300 0.000000 0.000000
									CHANNELS 3 Xrotation Yrotation Zrotation
									JOINT RightHand
									{
										OFFSET -26.026505 0.000000 0.000000
										CHANNELS 3 Xrotation Yrotation Zrotation
										JOINT RightHandThumb1
										{
											OFFSET -12.240601 -7.148026 9.207092
											CHANNELS 3 Xrotation Yrotation Zrotation
											JOINT RightHandThumb2
											{
												OFFSET -4.138618 -2.389435 2.389433
												CHANNELS 3 Xrotation Yrotation Zrotation
												JOINT RightHandThumb3
												{
													OFFSET -2.726974 -1.574417 1.574421
													CHANNELS 3 Xrotation Yrotation Zrotation
													JOINT RightHandThumb4
													{
														OFFSET -3.941010 -2.275345 2.275343
														CHANNELS 3 Xrotation Yrotation Zrotation
														End Site
														{
															OFFSET 0.000000 0.000000 0.000000
														}
													}
												}
											}
										}
										JOINT RightHandIndex1
										{
											OFFSET -24.424698 -1.985657 5.953444
											CHANNELS 3 Xrotation Yrotation Zrotation
											JOINT RightHandIndex2
											{
												OFFSET -6.426697 0.000000 0.000000
												CHANNELS 3 Xrotation Yrotation Zrotation
												JOINT RightHandIndex3
												{
													OFFSET -5.337898 0.000000 0.000000
													CHANNELS 3 Xrotation Yrotation Zrotation
													JOINT RightHandIndex4
													{
														OFFSET -4.409401 0.000000 0.000000
														CHANNELS 3 Xrotation Yrotation Zrotation
														End Site
														{
															OFFSET 0.000000 0.000000 0.000000
														}
													}
												}
											}
										}
										JOINT RightHandMiddle1
										{
											OFFSET -23.810097 0.000000 0.000000
											CHANNELS 3 Xrotation Yrotation Zrotation
											JOINT RightHandMiddle2
											{
												OFFSET -7.176498 0.000000 0.000000
												CHANNELS 3 Xrotation Yrotation Zrotation
												JOINT RightHandMiddle3
												{
													OFFSET -6.774902 0.000000 0.000000
													CHANNELS 3 Xrotation Yrotation Zrotation
													JOINT RightHandMiddle4
													{
														OFFSET -5.403328 0.000000 0.000000
														CHANNELS 3 Xrotation Yrotation Zrotation
														End Site
														{
															OFFSET 0.000000 0.000000 0.000000
														}
													}
												}
											}
										}
										JOINT RightHandRing1
										{
											OFFSET -22.908302 -0.839325 -6.020576
											CHANNELS 3 Xrotation Yrotation Zrotation
											JOINT RightHandRing2
											{
												OFFSET -6.337502 0.000000 0.000000
												CHANNELS 3 Xrotation Yrotation Zrotation
												JOINT RightHandRing3
												{
													OFFSET -5.779297 0.000000 0.000000
													CHANNELS 3 Xrotation Yrotation Zrotation
													JOINT RightHandRing4
													{
														OFFSET -4.965698 0.000000 0.000000
														CHANNELS 3 Xrotation Yrotation Zrotation
														End Site
														{
															OFFSET 0.000000 0.000000 0.000000
														}
													}
												}
											}
										}
										JOINT RightHandPinky1
										{
											OFFSET -20.037003 -1.530334 -10.950259
											CHANNELS 3 Xrotation Yrotation Zrotation
											JOINT RightHandPinky2
											{
												OFFSET -5.254700 0.000000 0.000000
												CHANNELS 3 Xrotation Yrotation Zrotation
												JOINT RightHandPinky3
												{
													OFFSET -4.810204 0.000000 0.000000
													CHANNELS 3 Xrotation Yrotation Zrotation
													JOINT RightHandPinky4
													{
														OFFSET -3.647202 0.000000 0.000000
														CHANNELS 3 Xrotation Yrotation Zrotation
														End Site
														{
															OFFSET 0.000000 0.000000 0.000000
														}
													}
												}
											}
										}
									}
								}
							}
						}
					}
				}
			}
		}
	}
	JOINT LeftUpLeg
	{
		OFFSET 15.427100 -6.655098 0.678600
		CHANNELS 3 Xrotation Yrotation Zrotation
		JOINT LeftLeg
		{
			OFFSET 4.081073 -39.591068 13.024000
			CHANNELS 3 Xrotation Yrotation Zrotation
			JOINT LeftFoot
			{
				OFFSET -4.081074 -37.707932 -15.979700
				CHANNELS 3 Xrotation Yrotation Zrotation
				JOINT LeftToeBase
				{
					OFFSET 5.346399 -15.068900 20.645000
					CHANNELS 3 Xrotation Yrotation Zrotation
					JOINT LeftToe_End
					{
						OFFSET 2.754700 0.931300 11.300900
						CHANNELS 3 Xrotation Yrotation Zrotation
						End Site
						{
							OFFSET 0.000000 0.000000 0.000000
						}
					}
				}
			}
		}
	}
	JOINT RightUpLeg
	{
		OFFSET -15.569500 -6.655098 0.678600
		CHANNELS 3 Xrotation Yrotation Zrotation
		JOINT RightLeg
		{
			OFFSET -4.081825 -39.591045 13.023800
			CHANNELS 3 Xrotation Yrotation Zrotation
			JOINT RightFoot
			{
				OFFSET 4.081824 -37.707954 -15.979600
				CHANNELS 3 Xrotation Yrotation Zrotation
				JOINT RightToeBase
				{
					OFFSET -5.346400 -15.068900 20.645000
					CHANNELS 3 Xrotation Yrotation Zrotation
					JOINT RightToe_End
					{
						OFFSET -2.754700 0.931300 11.300900
						CHANNELS 3 Xrotation Yrotation Zrotation
						End Site
						{
							OFFSET 0.000000 0.000000 0.000000
						}
					}
				}
			}
		}
	}
}
MOTION
Frames: 4
Frame Time: 0.016667
1.210932 85.352631 -0.735224 -6.107903 -43.249755 -4.097384 5.830170 4.865842 -1.201219 11.836802 9.036861 -3.086774 0.000000 0.000000 0.000000 11.836810 9.036865 -3.086777 -4.023277 -0.974173 0.382902 -6.479895 20.161233 -0.594155 -0.000001 0.000000 0.000000 1.392485 -0.696031 -7.877867 0.000000 0.000000 0.000000 -14.270848 2.385504 -63.280774 9.855345 -47.499325 5.919371 16.172167 0.901937 18.796308 9.163419 4.814154 -5.499005 -0.335221 0.032292 0.783679 0.000004 0.000016 0.000012 0.000001 0.000002 -0.000000 -0.902006 -6.980949 -3.808327 0.033591 0.804084 -16.418745 -0.000001 0.000000 -0.000003 0.000000 0.000000 0.000000 1.947928 9.683078 -14.539685 -0.463668 -1.564325 -21.881331 -0.000003 -0.000001 -0.000004 -0.000000 0.000001 -0.000001 2.605957 14.896801 -31.345183 -0.576909 -2.712546 -32.011413 0.000003 -0.000002 0.000000 -0.000000 0.000001 0.000000 4.170686 18.494993 -34.987262 -0.707097 -5.788794 -39.372830 0.000001 -0.000001 0.000001 -0.000004 -0.000002 0.000001 1.409766 9.464718 9.801443 0.000000 0.000000 0.000000 1.234149 -24.280858 60.535523 -6.660164 41.888994 8.039887 6.224103 12.306674 11.672664 -8.895682 -4.903141 -0.383793 7.905252 -19.193004 -2.856824 -0.000002 0.000006 -0.000005 -0.000001 -0.000002 -0.000001 -1.085595 -1.215457 4.525544 0.141674 -1.114008 16.942839 0.000002 0.000002 -0.000010 0.000000 0.000000 0.000000 -0.663694 -2.903879 12.731714 -0.661484 1.814911 30.579034 0.000002 -0.000005 0.000003 0.000001 0.000001 -0.000000 2.423539 -7.404546 21.763310 -0.989846 3.764224 37.431226 -0.000000 -0.000002 -0.000003 -0.000001 -0.000001 0.000001 3.480945 -10.055087 24.322580 -1.458331 7.871961 41.091992 -0.000002 0.000001 -0.000002 -0.000000 0.000001 -0.000002 -30.063535 5.728304 13.208090 32.831596 -14.650776 0.051663 -0.110269 1.471000 -8.105879 -2.319084 -3.217023 0.802959 0.000000 0.000002 0.000000 1.343615 -13.664542 -18.983587 31.317859 -6.256573 0.663008 -23.466711 -6.995287 20.500915 -1.784976 -0.356732 0.333183 0.000000 -0.000000 -0.000000 
1.182096 85.167168 -1.168797 -4.791550 -41.987536 -3.675748 5.881424 4.803655 -1.215072 11.918893 8.877098 -2.961021 0.000000 0.000000 0.000000 11.918894 8.877117 -2.961026 -4.393514 -1.244337 0.135178 -6.869572 19.864924 -0.425487 0.000001 0.000000 0.000000 1.570209 -1.339778 -7.270730 0.000000 0.000000 0.000000 -11.927845 2.709221 -62.623839 11.392378 -50.094895 6.156090 15.214477 1.370625 16.884513 9.193348 5.062674 -5.652785 -0.335222 0.032317 0.783669 0.000003 0.000019 0.000012 0.000001 0.000002 -0.000004 -0.796947 -6.938172 -3.289528 0.025954 0.778739 -16.636999 0.000002 0.000001 -0.000001 0.000003 0.000001 0.000001 1.901930 9.732980 -14.095527 -0.466254 -1.570588 -21.943781 -0.000000 -0.000003 -0.000003 -0.000003 0.000001 -0.000001 2.724081 14.868101 -31.650400 -0.590217 -2.733317 -32.416494 0.000000 -0.000005 -0.000002 0.000000 -0.000000 -0.000001 4.123977 18.303012 -35.054013 -0.711771 -5.794180 -39.703989 0.000004 0.000001 -0.000000 0.000004 0.000000 -0.000001 1.547674 9.347143 9.092340 0.000000 0.000000 0.000000 0.557003 -22.906431 60.241367 -3.542692 42.903902 5.840077 7.677645 11.184449 10.633536 -8.650331 -5.353448 -1.233087 7.621903 -18.559343 -2.849203 -0.000002 0.000005 -0.000004 0.000000 -0.000001 -0.000001 -1.069536 -1.687649 5.364275 0.057423 -0.857531 19.622044 0.000003 0.000001 -0.000012 0.000000 0.000000 -0.000001 -0.869355 -2.826909 14.623775 -0.785352 2.015684 33.206064 0.000002 -0.000003 -0.000002 -0.000001 0.000002 -0.000000 2.549535 -6.904371 24.300655 -1.124986 3.935000 39.943930 -0.000000 0.000000 -0.000001 0.000001 -0.000000 -0.000001 3.462083 -9.593471 26.501021 -1.572227 7.998009 43.304328 0.000001 -0.000001 0.000001 0.000000 0.000001 0.000003 -32.427754 6.195348 13.802873 33.391709 -13.240142 1.034914 0.794546 -0.049346 -8.141734 -2.261776 -3.137205 0.783544 0.000000 0.000004 -0.000000 0.655217 -13.708711 -18.334559 31.740060 -5.997919 0.869026 -23.793939 -6.928091 20.425204 -1.477737 -0.504067 0.325129 0.000000 -0.000001 -0.000000 
1.159933 84.933228 -1.630802 -3.398261 -40.725508 -3.400354 5.934576 4.728262 -1.196592 12.004171 8.695483 -2.784137 0.000000 0.000000 0.000000 12.004171 8.695487 -2.784137 -4.402257 -1.432516 -0.308004 -7.743041 19.546099 -0.146667 -0.000001 -0.000000 -0.000000 1.744173 -1.717845 -6.596196 0.000000 0.000000 0.000000 -9.656332 2.899160 -62.029292 12.853431 -52.487039 6.201628 14.224887 1.951096 15.624071 9.323771 5.688835 -5.949670 -0.335224 0.032315 0.783675 0.000001 0.000018 0.000012 -0.000001 0.000001 -0.000003 -0.782990 -6.833227 -3.456141 0.013104 0.736802 -16.998792 0.000001 -0.000001 0.000002 0.000001 -0.000000 0.000003 1.951601 9.750310 -14.576691 -0.472447 -1.585729 -22.093633 0.000004 -0.000005 -0.000004 0.000001 -0.000002 0.000000 3.028764 14.536830 -33.148431 -0.631080 -2.795162 -33.635714 0.000005 -0.000001 -0.000000 -0.000004 0.000000 0.000002 4.069973 17.795419 -35.410911 -0.726092 -5.810338 -40.707480 -0.000000 -0.000003 -0.000001 -0.000004 -0.000003 0.000001 1.665581 8.672813 8.386894 0.000000 0.000000 0.000000 -0.517101 -21.343884 59.835059 -0.867252 43.424051 3.841155 9.539175 9.854839 10.594332 -8.424779 -5.710912 -1.809485 7.405776 -18.074624 -2.841182 -0.000001 0.000005 -0.000005 0.000001 -0.000001 -0.000001 -1.037039 -2.082861 6.381575 -0.021291 -0.648457 21.839566 0.000002 0.000001 -0.000011 0.000000 -0.000001 -0.000001 -1.065003 -2.741165 16.363899 -0.904113 2.190630 35.561148 0.000003 -0.000004 0.000001 0.000001 -0.000000 -0.000003 2.642169 -6.488012 26.411332 -1.248711 4.078754 42.132896 -0.000000 0.000001 -0.000001 0.000000 0.000000 -0.000003 3.458235 -9.126079 28.634636 -1.708306 8.136581 45.833438 -0.000001 0.000000 0.000000 -0.000001 0.000001 0.000002 -34.942804 6.230236 14.851012 33.855233 -11.430303 1.622301 1.747559 -1.684001 -8.320067 -2.203010 -3.055416 0.763587 -0.000000 0.000003 0.000000 -0.575065 -14.589895 -17.151723 32.354193 -5.211699 -0.054268 -24.022352 -6.844930 20.560879 -1.456851 -0.644435 0.637623 0.000000 -0.000001 -0.000000 
1.125644 84.636322 -2.141291 -1.955465 -39.465687 -3.182064 5.992493 4.642889 -1.192938 12.097064 8.496686 -2.607071 0.000000 0.000000 0.000000 12.097062 8.496701 -2.607072 -4.402063 -1.602833 -0.704802 -8.692106 19.262916 0.109185 0.000003 -0.000000 0.000000 1.920554 -2.204496 -5.946348 0.000000 0.000000 0.000000 -7.362924 3.228193 -61.378252 14.333898 -54.674035 6.292082 13.459752 1.934166 13.988625 9.552674 6.520998 -6.281341 -0.335184 0.032286 0.783656 -0.000002 0.000020 0.000010 -0.000000 -0.000001 -0.000002 -0.845298 -6.711944 -4.125704 -0.007805 0.670584 -17.571686 0.000000 0.000002 -0.000003 0.000000 0.000001 -0.000002 2.022859 9.683093 -15.641251 -0.484464 -1.614723 -22.381760 -0.000000 -0.000002 -0.000003 -0.000005 0.000001 0.000000 3.325890 14.067976 -34.924509 -0.685058 -2.872673 -35.188834 0.000001 -0.000006 -0.000003 -0.000000 -0.000000 -0.000001 4.168827 17.353788 -36.084023 -0.747017 -5.832947 -42.138627 -0.000004 -0.000001 0.000003 -0.000001 -0.000001 -0.000003 1.789070 8.381570 7.651965 0.000000 0.000000 0.000000 -1.251865 -20.026743 59.610599 1.393152 43.948538 1.818017 11.192225 8.642881 11.211533 -7.961396 -5.906372 -2.217076 7.208776 -17.631833 -2.832184 -0.000001 0.000004 -0.000007 -0.000001 -0.000000 -0.000002 -0.983915 -2.462984 7.369473 -0.096627 -0.468447 23.776575 0.000001 0.000001 -0.000010 -0.000000 -0.000000 0.000001 -1.250097 -2.657362 17.910298 -1.020510 2.348290 37.744240 0.000004 -0.000005 -0.000006 0.000000 0.000001 0.000004 2.681781 -6.018257 28.379871 -1.362745 4.201921 44.070556 -0.000000 0.000001 0.000002 -0.000000 0.000001 0.000000 3.439288 -8.676260 30.575256 -1.840093 8.259784 48.182996 0.000002 0.000001 0.000002 0.000002 0.000000 -0.000001 -37.676334 6.315802 16.178024 34.301029 -9.392382 2.103764 2.675944 -3.596495 -8.498728 -2.142961 -2.971903 0.743137 0.000000 -0.000001 -0.000000 -2.029040 -15.622574 -15.782588 33.208253 -4.348026 -1.333091 -24.289049 -6.766345 20.796813 -1.488141 -0.716581 0.934773 0.000000 -0.000002 0.000000 
